<svg width="800" height="600" xmlns="http://www.w3.org/2000/svg">
 <g>
  <title>Layer 1</title>
  <g id="svg_1">
   <g id="svg_2">
    <g id="svg_3">
     <path id="svg_4" d="m485.521,137.25c-28.49,0 -57.75,13.659 -76.359,35.648c-2.281,2.694 -5.631,4.248 -9.16,4.248c-0.002,0 -0.002,0 -0.002,0c-3.529,-0.001 -6.881,-1.555 -9.16,-4.249c-18.6,-21.988 -47.865,-35.647 -76.371,-35.647c-51.832,0 -92.432,40.605 -92.432,92.442c0,65.427 57.559,119.545 159.293,209.567c0.176,0.155 0.348,0.316 0.514,0.482l18.156,18.074l18.152,-18.074c0.168,-0.166 0.34,-0.327 0.516,-0.483c101.736,-90.008 159.295,-144.119 159.295,-209.566c0,-51.837 -40.606,-92.442 -92.442,-92.442zm-163.9,42.398c-32.178,0 -57.383,25.209 -57.383,57.392c0,6.628 -5.373,12 -12,12c-6.627,0 -12,-5.372 -12,-12c0,-45.64 35.748,-81.392 81.383,-81.392c6.627,0 12,5.373 12,12c0,6.628 -5.373,12 -12,12z" fill="#666666"/>
     <path id="svg_5" d="m485.521,113.25c-31.475,0 -62.566,12.689 -85.52,34.454c-22.945,-21.764 -54.045,-34.454 -85.533,-34.454c-65.288,0 -116.431,51.148 -116.431,116.442c0,36.542 15.049,71.882 47.359,111.216c28.187,34.316 67.43,69.778 119.766,116.091l26.373,26.255c2.342,2.33 5.404,3.496 8.467,3.496s6.125,-1.166 8.467,-3.497l26.367,-26.255c52.332,-46.301 91.57,-81.756 119.773,-116.09c32.307,-39.332 47.354,-74.672 47.354,-111.216c0,-65.294 -51.147,-116.442 -116.442,-116.442zm-66.853,326.008c-0.176,0.156 -0.348,0.317 -0.516,0.483l-18.152,18.074l-18.156,-18.074c-0.166,-0.166 -0.338,-0.327 -0.514,-0.482c-101.734,-90.022 -159.293,-144.141 -159.293,-209.567c0,-51.837 40.6,-92.441 92.432,-92.441c28.506,0 57.771,13.659 76.371,35.647c2.279,2.694 5.631,4.248 9.16,4.249c0,0 0,0 0.002,0c3.529,0 6.879,-1.554 9.16,-4.248c18.609,-21.989 47.869,-35.648 76.359,-35.648c51.836,0 92.441,40.604 92.441,92.441c0.001,65.447 -57.558,119.558 -159.294,209.566z" fill="#666666"/>
     <path id="svg_6" d="m321.621,155.648c-45.635,0 -81.383,35.752 -81.383,81.392c0,6.628 5.373,12 12,12c6.627,0 12,-5.372 12,-12c0,-32.183 25.205,-57.392 57.383,-57.392c6.627,0 12,-5.372 12,-12c0,-6.627 -5.373,-12 -12,-12z" fill="#666666"/>
    </g>
   </g>
   <g id="svg_7"/>
   <g id="svg_8"/>
   <g id="svg_9"/>
   <g id="svg_10"/>
   <g id="svg_11"/>
   <g id="svg_12"/>
   <g id="svg_13"/>
   <g id="svg_14"/>
   <g id="svg_15"/>
   <g id="svg_16"/>
   <g id="svg_17"/>
   <g id="svg_18"/>
   <g id="svg_19"/>
   <g id="svg_20"/>
   <g id="svg_21"/>
  </g>
 </g>

</svg>